<?xml version="1.0" encoding="utf-8"?>
<!-- Generator: Adobe Illustrator 27.4.1, SVG Export Plug-In . SVG Version: 6.00 Build 0)  -->
<svg version="1.1" id="Group_72" xmlns="http://www.w3.org/2000/svg" xmlns:xlink="http://www.w3.org/1999/xlink" x="0px" y="0px"
	 viewBox="0 0 726 281.1" style="enable-background:new 0 0 726 281.1;" xml:space="preserve">
<style type="text/css">
	.st0{fill:#231F20;}
</style>
<g id="Group_70_00000022532916998831574200000009670700145346089377_">
	<path id="Path_6_00000029728019588217394270000002838189426293279401_" class="st0" d="M646.6,281.1c22.9,0,41.9-8.9,56.9-26.7
		c15-17.8,22.5-40.7,22.5-68.6c0-27.8-7.5-50.6-22.4-68.3c-14.9-17.7-33.9-26.5-57-26.5c-23.2,0-42.2,8.8-57.2,26.5
		c-14.9,17.7-22.4,40.4-22.4,68.3c0,27.9,7.5,50.8,22.5,68.6C604.5,272.2,623.5,281.1,646.6,281.1 M646.6,271.2
		c-14.2,0-24.7-7.1-31.7-21.2c-7-14.2-10.4-35.8-10.4-65c0-28.2,3.5-49.3,10.5-63.4c7-14.1,17.5-21.1,31.6-21.1
		c14.2,0,24.7,7.1,31.6,21.2s10.3,35.9,10.3,65.3c0,28.2-3.5,49.3-10.4,63.2C671.1,264.2,660.6,271.2,646.6,271.2 M516.1,251.4v24.3
		h45.7l-0.2-7.1c-4.9-0.1-8.4-2-10.5-5.7c-2.1-3.7-3.2-9.8-3.2-18.3V0h-6c-5.5,5.9-11.8,11-18.8,15.1c-6.9,4.1-14.3,7.2-22.1,9.2V30
		c5.5,0.5,9.4,2.4,11.6,5.7c2.3,3.3,3.4,9,3.4,17v60c-4.8-6.8-11.3-12.3-18.8-16.1c-7.8-3.9-16.4-5.8-25.2-5.7
		c-22.1,0-40,9.5-53.6,28.6s-20.5,44.3-20.5,75.7c0,26.1,5.7,46.9,17.2,62.5c11.5,15.6,26.7,23.3,45.7,23.3
		c10.4,0,20.7-2.6,29.8-7.6C500.3,268.4,508.7,261.1,516.1,251.4 M516.1,235.3c-5.1,8.7-11.2,15.4-18.2,20.1
		c-7,4.8-14.3,7.1-21.9,7.1c-14.2,0-25.2-7.5-33.1-22.6c-7.9-15.1-11.9-36.1-11.9-63.2c0-24.6,3.4-43.5,10.3-56.6
		c6.9-13.1,16.8-19.7,29.7-19.7c14.2,0,25.2,5.8,33.1,17.5s11.9,28,11.9,49.1L516.1,235.3z M345.4,275.8H395l-0.2-7.1
		c-6.2-0.9-10.6-3.6-13.3-8.1c-2.6-4.6-3.9-12.5-3.9-23.7v-153h-5.9c-6.4,5.6-13.3,10.6-20.6,15c-6.3,3.8-13,6.8-20,9l0.2,6.4
		c5.2,1.2,8.9,3.9,11,8c2.1,4.1,3.1,11.2,3.1,21.3v92.6c-8.2,5-16.8,9.3-25.8,12.8c-7.8,2.9-14.5,4.4-19.9,4.4
		c-6.3,0-10.9-1.8-13.5-5.3s-4-9.8-4-18.7V83.8h-6c-5.6,6-11.9,11.1-18.9,15.3c-6.8,4.1-14.2,7.2-21.9,9.2v5.5
		c5.5,0.6,9.4,2.6,11.6,6c2.3,3.4,3.4,9.2,3.4,17.2v108.7c0,11,2.4,19.6,7.2,25.9c4.8,6.3,11.4,9.4,19.9,9.4c6.5,0,14.1-2.1,23-6.3
		s23.9-13.5,45.1-27.9L345.4,275.8z M0,275.8h65.9v-7.1c-6-1.2-10.5-4-13.6-8.2c-3.1-4.3-4.7-9.9-4.7-16.8c0-3,0.3-6,0.8-9
		c0.6-3.5,1.4-7,2.5-10.4l11.7-36.1h92.2l14.8,48.1c0.4,1.1,0.9,2.6,1.5,4.6c2.1,6.7,3.1,11.3,3.1,13.9c0,3.3-1.2,6.5-3.6,8.9
		c-2.6,2.6-5.8,4.4-9.4,5v7.1h73l-0.2-7.1c-4.6-0.2-9-3.4-13.1-9.5c-4.1-6.1-8.3-15.8-12.5-29.1L133.8,0h-23.6L42.6,206.8
		c-6.6,20.6-13,35.3-19.3,44C17,259.5,9.3,265.5,0,268.6V275.8z M67,174.9l43.6-133.4L151,174.9H67z"/>
</g>
</svg>
